<svg width="32" height="32" viewBox="0 0 32 32" fill="none" xmlns="http://www.w3.org/2000/svg">
<path d="M25.0107 14.9141C27.2191 14.9141 28.8816 13.9941 30.1074 12.3925L28.4691 11.1425C28.0644 11.6758 27.5414 12.1079 26.9412 12.4046C26.3411 12.7014 25.6802 12.8547 25.0107 12.8525C22.6141 12.8525 20.8774 10.9 20.8774 8.50412C20.8774 6.10829 22.5857 4.04581 25.0791 4.04581C26.1874 4.04581 26.9707 4.30747 27.6541 4.7308V6.83746H29.7157V3.76581L29.3207 3.45497C28.1874 2.5633 26.4566 2.08997 25.0099 2.08997C21.4732 2.08997 18.5966 4.96664 18.5966 8.50331C18.5966 12.0366 21.4724 14.9141 25.0107 14.9141ZM29.2882 27.5641L29.2149 24.6116V17.4066H24.9149V19.4691H27.0432V24.3575C27.0432 26.4633 25.4349 27.9541 23.8124 27.9541C22.1899 27.9541 21.3432 26.8291 21.3432 24.7241V17.4058H17.3266V19.4683H19.1716V25.0816C19.1716 27.9383 20.7732 29.9066 23.6299 29.9066C25.2716 29.9066 26.5216 28.9958 27.2674 27.5916H27.3007L27.5949 29.555H30.8991V27.5666H29.2907V27.5625L29.2882 27.5641ZM18.1216 2.39247H14.5382L11.4216 11.4425H11.3732L8.27323 2.39247H4.4549V4.45579H6.6024L10.2982 14.7708H12.2616V14.7683L16.1157 4.45663H18.1199V2.39331L18.1216 2.39247ZM1.10156 29.5816H3.2249V27.4591H1.1024V29.5816H1.10156ZM9.30156 19.7983H9.27823L9.1449 17.4066H5.3549V19.2866H7.37156V27.565H5.3549V29.5541H14.7216V27.6041H9.50656V22.6083C9.7424 20.8 11.0982 19.2558 12.9482 19.2558H12.9816L12.9441 21.1041H15.0057V17.3725H13.3757C11.5091 17.3675 10.1241 18.3775 9.30073 19.7991L9.30156 19.7983Z" fill="white"/>
</svg>
