<svg width="104" height="64" viewBox="0 0 104 64" fill="none" xmlns="http://www.w3.org/2000/svg">
<path d="M47.6981 29.0901V25.8002H50.0013V24.2983C50.0013 21.0084 52.0886 19.0059 55.5434 19.0059C57.9905 19.0059 59.358 20.0071 59.8619 21.4375V23.2255H56.8389C56.8389 23.0109 56.623 22.3673 55.6153 22.3673C54.6077 22.3673 54.1758 23.0109 54.1758 24.2983V25.8002H58.5663V29.0901H54.1758V39.3889H50.0733V29.0901H47.6981Z" fill="#1D2832"/>
<path d="M7.74927 19.5068H8.18112C9.26074 19.5784 10.0525 20.4366 9.98048 21.5094C9.90851 22.4391 9.18876 23.2258 8.18112 23.2974H7.74927C6.66965 23.1543 5.87793 22.2961 5.9499 21.2948C6.02188 20.2935 6.74162 19.5068 7.74927 19.5068Z" fill="#1D2832"/>
<path d="M0.834839 43.8234V41.8924H3.64671C3.64671 42.4646 4.15053 42.8937 4.72633 42.8222H4.79831C5.73398 42.8222 5.9499 42.3215 5.9499 40.9627V25.8005H9.98048V41.0342C9.98048 44.2526 8.25309 46.3266 4.87028 46.3266C2.42314 46.3266 1.26669 45.2538 0.834839 43.8234Z" fill="#1D2832"/>
<path d="M70.0102 50.2149V51.4224H66.0508V50.3348L67.8214 48.5434C68.3151 48.053 68.562 47.5812 68.562 47.128C68.562 46.9094 68.4972 46.7388 68.3684 46.6162C68.2403 46.4936 68.0762 46.4323 67.8775 46.4323C67.7329 46.4323 67.6069 46.4642 67.4997 46.5282C67.3924 46.5922 67.3089 46.6721 67.2499 46.7681C67.1967 46.8587 67.1535 46.9441 67.1211 47.024C67.0945 47.0987 67.0786 47.168 67.0729 47.2319H66.0184V46.6322C66.04 46.5149 66.0911 46.3896 66.1717 46.2563C66.2524 46.1177 66.3618 45.9738 66.5014 45.8245C66.6468 45.6752 66.8476 45.5526 67.1053 45.4566C67.3629 45.3553 67.6501 45.3047 67.9661 45.3047C68.5296 45.3047 68.991 45.4566 69.3509 45.7605C69.71 46.0591 69.8899 46.4589 69.8899 46.9601C69.8899 47.3813 69.8036 47.7438 69.6323 48.0477C69.466 48.3516 69.1652 48.73 68.7312 49.1833L67.7653 50.2149H70.0102Z" fill="#1D2832"/>
<path d="M61.7955 51.5442C61.1139 51.5442 60.5885 51.3443 60.2178 50.9444C59.8529 50.5446 59.6708 50.0354 59.6708 49.417C59.6708 48.8039 59.8637 48.2921 60.2502 47.8816C60.6367 47.4657 61.1513 47.2578 61.7955 47.2578C61.9401 47.2578 62.0798 47.2685 62.2136 47.2898C62.3482 47.3111 62.4634 47.3404 62.5598 47.3777C62.6563 47.4151 62.7477 47.4577 62.8334 47.5057C62.919 47.5484 62.9917 47.5963 63.0507 47.6497C63.1155 47.7029 63.1688 47.7563 63.2119 47.8096C63.2602 47.8629 63.3005 47.9136 63.3321 47.9616C63.3645 48.0042 63.389 48.0442 63.4048 48.0815C63.4264 48.1188 63.4423 48.1482 63.4531 48.1695L63.461 48.2014V48.7373H62.5519C62.557 48.7373 62.5519 48.7239 62.5354 48.6973C62.5253 48.6652 62.5008 48.628 62.4634 48.5853C62.431 48.5427 62.3878 48.5 62.3346 48.4573C62.2806 48.4147 62.2057 48.38 62.1093 48.3534C62.0179 48.3214 61.9135 48.3054 61.7955 48.3054C61.5004 48.3054 61.2751 48.4121 61.1196 48.6253C60.9634 48.8332 60.8857 49.0971 60.8857 49.417C60.8857 49.7315 60.9634 49.9901 61.1196 50.1927C61.2751 50.3953 61.5004 50.4966 61.7955 50.4966C61.9941 50.4966 62.1546 50.462 62.2784 50.3927C62.4073 50.318 62.4872 50.246 62.5195 50.1767L62.5598 50.0647H63.4696V50.6006C63.4588 50.6272 63.4423 50.6618 63.4207 50.7045C63.4048 50.7472 63.3537 50.8218 63.2681 50.9284C63.1824 51.035 63.0831 51.131 62.9701 51.2163C62.8578 51.2963 62.6966 51.371 62.4872 51.4403C62.2784 51.5096 62.0474 51.5442 61.7955 51.5442Z" fill="#1D2832"/>
<path fill-rule="evenodd" clip-rule="evenodd" d="M71.4186 50.9106C71.8267 51.3318 72.3794 51.5423 73.0769 51.5423C73.7635 51.5423 74.3134 51.3291 74.7265 50.9026C75.1397 50.476 75.3462 49.9456 75.3462 49.3112V47.5358C75.3462 46.8908 75.1425 46.3576 74.7344 45.9364C74.3321 45.5152 73.7793 45.3047 73.0769 45.3047C72.3845 45.3047 71.8317 45.518 71.4186 45.9444C71.0112 46.3656 70.8075 46.8961 70.8075 47.5358V49.3112C70.8075 49.9509 71.0112 50.4841 71.4186 50.9106ZM73.793 50.1029C73.616 50.3108 73.377 50.4148 73.0769 50.4148C72.7652 50.4148 72.5241 50.3108 72.3521 50.1029C72.1858 49.8949 72.103 49.631 72.103 49.3112V47.5358C72.103 47.2213 72.1887 46.9601 72.3607 46.7521C72.5378 46.5389 72.776 46.4323 73.0769 46.4323C73.3878 46.4323 73.6296 46.5362 73.8009 46.7442C73.9729 46.9521 74.0586 47.216 74.0586 47.5358V49.3112C74.0586 49.6257 73.9701 49.8897 73.793 50.1029Z" fill="#1D2832"/>
<path d="M78.5247 51.4226H77.1889V46.8083L76.8348 47.1042H75.9012V46.5044L77.4307 45.4248H78.5247V51.4226Z" fill="#1D2832"/>
<path fill-rule="evenodd" clip-rule="evenodd" d="M80.1144 50.9346C80.5167 51.3291 81.0608 51.5264 81.7482 51.5264C82.424 51.5264 82.966 51.3291 83.3734 50.9346C83.7815 50.5347 83.9852 50.0363 83.9852 49.4392C83.9852 48.8687 83.8031 48.4023 83.4382 48.0397C83.0783 47.6772 82.5853 47.4852 81.9569 47.4639C81.8389 47.4639 81.7158 47.4906 81.587 47.5439C81.6086 47.5173 81.7187 47.392 81.9166 47.168C82.121 46.9388 82.2873 46.7495 82.4161 46.6003L83.0193 45.8885V45.3447H81.9166L80.927 46.5443C80.3958 47.1947 80.0287 47.7252 79.8243 48.1357C79.6206 48.5462 79.5184 48.9914 79.5184 49.4712C79.5184 50.0523 79.7171 50.5401 80.1144 50.9346ZM82.432 50.135C82.2657 50.3109 82.0404 50.3989 81.7561 50.3989C81.461 50.3989 81.23 50.3109 81.0637 50.135C80.8975 49.959 80.8147 49.7351 80.8147 49.4632C80.8147 49.1913 80.8975 48.9674 81.0637 48.7915C81.23 48.6102 81.4581 48.5195 81.7482 48.5195C82.0433 48.5195 82.2736 48.6102 82.4399 48.7915C82.6061 48.9674 82.6896 49.1913 82.6896 49.4632C82.6896 49.7297 82.604 49.9537 82.432 50.135Z" fill="#1D2832"/>
<path d="M87.792 51.4233H86.577V47.3848H89.474V48.3684H87.792V51.4233Z" fill="#1D2832"/>
<path fill-rule="evenodd" clip-rule="evenodd" d="M91.9723 51.542C92.6265 51.542 93.1469 51.3368 93.5334 50.9263C93.925 50.5158 94.1207 50.0039 94.1207 49.3909C94.1207 48.7831 93.925 48.2766 93.5334 47.8714C93.1469 47.4662 92.6265 47.2637 91.9723 47.2637C91.3173 47.2637 90.7941 47.4662 90.4025 47.8714C90.016 48.2766 89.8231 48.7831 89.8231 49.3909C89.8231 50.0039 90.016 50.5158 90.4025 50.9263C90.7941 51.3368 91.3173 51.542 91.9723 51.542ZM91.9723 50.4944C91.6664 50.4944 91.4325 50.3905 91.272 50.1826C91.1165 49.9746 91.0381 49.7107 91.0381 49.3909C91.0381 49.0816 91.1187 48.8257 91.2799 48.6231C91.4411 48.4152 91.6714 48.3113 91.9723 48.3113C92.2724 48.3113 92.5035 48.4152 92.664 48.6231C92.8252 48.8257 92.9058 49.0816 92.9058 49.3909C92.9058 49.7107 92.8252 49.9746 92.664 50.1826C92.5085 50.3905 92.2775 50.4944 91.9723 50.4944Z" fill="#1D2832"/>
<path fill-rule="evenodd" clip-rule="evenodd" d="M95.5617 52.5428H94.4677V50.4556H94.8621C95.0658 50.301 95.1867 49.8771 95.2241 49.1841L95.345 47.3848H98.6602V50.4556H99.2641V52.5428H98.1693V51.4233H95.5617V52.5428ZM95.9964 50.4556H97.469V48.3364H96.3347L96.262 49.3121C96.2296 49.8132 96.1418 50.1944 95.9964 50.4556Z" fill="#1D2832"/>
<path fill-rule="evenodd" clip-rule="evenodd" d="M100.064 51.1662C100.284 51.4167 100.617 51.542 101.061 51.542C101.609 51.542 102.011 51.3315 102.269 50.9103L102.35 51.4221H103.444V48.975C103.444 48.4152 103.285 47.9914 102.969 47.7035C102.658 47.4103 102.196 47.2637 101.585 47.2637C101.295 47.2637 101.035 47.3063 100.804 47.3916C100.396 47.5355 100.115 47.7675 99.9594 48.0874L99.9507 48.0954V48.6311H100.868L100.893 48.5911C100.904 48.5698 100.927 48.5405 100.965 48.5032C101.002 48.4658 101.045 48.4286 101.094 48.3912C101.142 48.3539 101.207 48.3246 101.287 48.3033C101.373 48.2766 101.464 48.2633 101.561 48.2633C102.006 48.2633 102.229 48.4872 102.229 48.935V49.1109L102.132 49.087C102.068 49.0763 101.971 49.0657 101.842 49.0549C101.719 49.039 101.595 49.031 101.472 49.031C100.893 49.031 100.455 49.1429 100.16 49.3668C99.8709 49.5855 99.7255 49.892 99.7255 50.2865C99.7255 50.6277 99.8385 50.921 100.064 51.1662ZM102.044 50.3905C101.915 50.5398 101.719 50.6144 101.456 50.6144C101.102 50.6144 100.925 50.4678 100.925 50.1746C100.925 49.8707 101.134 49.7187 101.553 49.7187C101.816 49.7187 102.041 49.74 102.229 49.7827V49.9587C102.229 50.0973 102.167 50.2412 102.044 50.3905Z" fill="#1D2832"/>
<path d="M11.5653 25.7285V34.1678C11.5653 37.1716 12.8609 39.7463 16.4596 39.6748C18.115 39.6748 19.6265 38.8166 20.4182 37.4577L20.6341 39.3172H24.4488V25.7285H20.3462V33.3811C20.3462 34.6684 19.7704 36.0988 17.8271 36.0988C16.2437 36.0988 15.6679 35.026 15.6679 33.4526V25.7285H11.5653Z" fill="#1D2832"/>
<path d="M31.1044 29C29.8088 29 29.3426 29.3052 29.3426 30.0204C29.3426 30.6633 29.866 30.7283 30.7561 30.8387C30.856 30.8511 30.961 30.8642 31.07 30.8786L32.7974 31.0932C35.3884 31.4508 37.1878 32.452 37.1878 35.0983C37.1878 37.7445 35.0286 39.6755 31.3579 39.6755C27.6871 39.6755 25.7438 37.8875 25.4559 36.9578V35.0983H28.4789C28.5508 35.5274 29.4865 36.6717 31.3579 36.6717C32.9413 36.6717 33.4451 36.171 33.4451 35.3843C33.4451 34.5261 32.6534 34.1685 31.3579 33.9539L29.6305 33.7394C27.1833 33.3818 25.5279 32.2375 25.5279 29.6628C25.5279 27.0881 27.1496 25.5824 30.6044 25.5824C33.2331 25.5824 35.8523 25.7991 38.4821 25.7991L38.698 22.3662H42.5127V25.7991H45.5356V29.089H42.5127V34.3815C42.5127 35.7403 42.9445 36.384 44.0242 36.384C44.6719 36.4555 45.2477 36.0264 45.3197 35.3827V35.3112H48.2707V37.1707C47.6949 38.6011 46.2554 39.7454 43.7363 39.7454C40.4254 39.7454 38.4821 37.7429 38.4821 34.5245V29.089L31.1044 29Z" fill="#1D2832"/>
<path fill-rule="evenodd" clip-rule="evenodd" d="M65.8348 25.3701C61.2284 25.3701 58.5653 28.5885 58.5653 32.5221C58.5653 36.4556 61.3004 39.7455 65.8348 39.7455C70.3692 39.7455 73.1042 36.4556 73.1042 32.5221C73.1042 28.5885 70.4411 25.3701 65.8348 25.3701ZM65.7628 28.8746C67.922 28.8746 68.9297 30.5195 68.9297 32.5221C69.0016 34.5246 67.994 36.2411 65.8348 36.2411C63.6755 36.2411 62.6679 34.5246 62.6679 32.5221C62.6679 30.5195 63.6035 28.8746 65.7628 28.8746Z" fill="#1D2832"/>
<path fill-rule="evenodd" clip-rule="evenodd" d="M74.1825 32.5221C74.1825 28.5885 76.8456 25.3701 81.4519 25.3701C86.0583 25.3701 88.7214 28.5885 88.7214 32.5221C88.7214 36.4556 85.9863 39.7455 81.4519 39.7455C76.9175 39.7455 74.1825 36.4556 74.1825 32.5221ZM84.5469 32.5221C84.5469 30.5195 83.5392 28.8746 81.38 28.8746C79.2207 28.8746 78.2131 30.5195 78.2131 32.5221C78.2131 34.5246 79.2207 36.2411 81.38 36.2411C83.5392 36.2411 84.5469 34.5246 84.5469 32.5221Z" fill="#1D2832"/>
<path fill-rule="evenodd" clip-rule="evenodd" d="M95.4153 25.3001C91.6726 25.3001 89.2255 28.4469 89.2255 32.5236C89.2255 36.4571 91.4567 39.6755 95.2713 39.747C97.0707 39.8185 98.7981 38.8888 99.8057 37.3869L100.022 39.3179H103.836V19.1494H99.8057V27.5172C98.8701 26.0868 97.1427 25.2286 95.4153 25.3001ZM96.5669 29.0191C98.5102 29.0191 99.8057 30.521 99.8057 32.5236C99.8057 34.5261 98.5102 36.028 96.5669 36.0995C94.4796 36.0995 93.328 34.5976 93.328 32.5951C93.328 30.5925 94.4076 29.0191 96.5669 29.0191Z" fill="#1D2832"/>
</svg>
