<svg width="194" height="64" viewBox="0 0 194 64" fill="none" xmlns="http://www.w3.org/2000/svg">
<g clip-path="url(#clip0_1211_1679)">
<path d="M24.4087 25.936V29.5871L22.5202 31.4757L31.5851 40.5406L28.0598 44.0658L18.9949 35.0009L9.92999 44.0658L6.40475 40.5406L15.4697 31.4757L13.5811 29.5871V25.936L12.3221 24.677V27.8245L11.189 28.9576L6.65655 24.4252L5.52344 25.5583C5.52344 24.677 5.64934 22.1589 7.78967 20.1445C9.92999 18.0042 12.448 19.0114 13.2034 19.8927L17.7359 24.4252L16.6028 25.5583L18.9949 27.9504L21.2611 25.4324L20.128 24.2993L24.6605 19.7668C25.5418 19.0114 27.9339 18.0042 30.2002 20.1445C32.3405 22.2848 32.4664 24.677 32.4664 25.5583L31.3333 24.4252L26.8008 28.9576L25.6677 27.8245V24.677L24.4087 25.936Z" fill="#1D2832"/>
<path fill-rule="evenodd" clip-rule="evenodd" d="M0.109375 44.0653V18.8849C0.109375 15.3597 2.87921 12.5898 6.40446 12.5898H31.5848C35.11 12.5898 37.8799 15.3597 37.8799 18.8849V44.0653C37.8799 47.5905 35.11 50.3603 31.5848 50.3603H6.40446C2.87921 50.3603 0.109375 47.5905 0.109375 44.0653ZM1.15856 44.0653V18.8849C1.15856 15.9391 3.45866 13.639 6.40446 13.639H31.5848C34.5306 13.639 36.8307 15.9391 36.8307 18.8849V44.0653C36.8307 47.0111 34.5306 49.3112 31.5848 49.3112H6.40446C3.45866 49.3112 1.15856 47.0111 1.15856 44.0653Z" fill="#1D2832"/>
<path fill-rule="evenodd" clip-rule="evenodd" d="M149.553 23.9229C150.434 23.9229 152.197 23.9229 153.456 25.056C154.463 25.9373 154.589 27.3222 154.589 27.9517C154.589 28.5812 154.463 29.2107 154.085 29.8402C153.708 30.4697 153.204 30.8474 152.826 30.9733C153.582 31.0992 154.337 31.4769 154.967 31.9806C155.47 32.4842 155.974 33.3655 155.974 34.6245C155.974 36.1353 155.344 37.1425 154.841 37.6461C153.582 38.9051 151.819 38.9051 150.812 38.9051H144.895V23.9229H149.553ZM148.42 30.092H148.923C149.427 30.092 150.182 29.9661 150.686 29.7143C151.064 29.4625 151.316 29.0848 151.316 28.3294C151.316 27.574 150.938 27.1963 150.686 27.0704C150.182 26.6927 149.553 26.6927 148.923 26.6927H148.42V30.092ZM148.42 36.2612H149.301C150.182 36.2612 151.316 36.2612 151.945 35.6317C152.323 35.3799 152.449 34.8763 152.449 34.3727C152.449 33.7432 152.197 33.3655 151.945 33.1137C151.316 32.6101 150.182 32.6101 149.427 32.6101H148.42V36.2612Z" fill="#1D2832"/>
<path fill-rule="evenodd" clip-rule="evenodd" d="M168.438 28.9597H165.165L165.039 30.0929C164.158 28.8338 162.773 28.582 161.892 28.582C160.507 28.582 159.248 29.0856 158.366 29.9669C157.485 30.8483 156.855 32.3591 156.855 33.9958C156.855 35.3807 157.359 36.6397 158.366 37.7729C159.499 38.906 160.633 39.2837 162.143 39.2837C163.025 39.2837 164.284 39.1578 165.165 37.7729V39.0319H168.438V28.9597ZM160.255 33.9958C160.255 32.9886 160.633 32.485 161.01 32.1073C161.514 31.7296 162.143 31.3519 162.773 31.226C163.276 31.226 164.032 31.4778 164.535 31.9814C165.039 32.485 165.291 33.1145 165.291 33.8699C165.291 34.7512 164.913 35.3807 164.535 35.7584C164.032 36.262 163.402 36.5138 162.773 36.5138C162.017 36.5138 161.388 36.262 160.884 35.7584C160.633 35.5066 160.255 34.8771 160.255 33.9958Z" fill="#1D2832"/>
<path d="M170.453 28.9597H173.727V30.0928C174.734 28.8338 175.867 28.582 176.874 28.582C177.755 28.582 178.889 28.7079 179.77 29.5892C180.777 30.5965 180.777 31.7296 180.777 32.6109V39.0319H177.504V33.8699C177.504 33.2404 177.504 32.3591 177 31.8555C176.748 31.6037 176.37 31.3519 175.741 31.3519C175.111 31.3519 174.608 31.6037 174.356 31.8555C173.852 32.3591 173.727 33.1145 173.727 33.744V39.0319H170.453V28.9597Z" fill="#1D2832"/>
<path d="M186.062 32.6112V22.5391H182.789V39.0322H186.062V34.6256L189.965 39.0322H194.372L189.21 33.4925L193.994 28.96H189.714L186.062 32.6112Z" fill="#1D2832"/>
<path fill-rule="evenodd" clip-rule="evenodd" d="M49.4636 23.9219C51.3522 23.9219 52.6112 24.5514 53.3666 25.1809C53.9961 25.8104 54.6256 26.9435 54.6256 28.5802C54.6256 29.5874 54.3738 30.7206 53.4925 31.6019C52.9889 32.1055 52.2335 32.6091 51.3522 32.735L56.0105 38.9042H51.7299L47.701 32.9868V39.0301H44.1758V23.9219H49.4636ZM47.701 30.7206H48.4564C49.0859 30.7206 49.9673 30.5947 50.5968 30.0911C50.8486 29.8393 51.2263 29.3356 51.2263 28.5802C51.2263 27.6989 50.8486 27.3212 50.4709 27.0694C49.8414 26.6917 48.96 26.5658 48.5823 26.5658H47.701V30.7206Z" fill="#1D2832"/>
<path fill-rule="evenodd" clip-rule="evenodd" d="M67.7197 28.9578H64.4462L64.3203 30.0909C63.439 28.8319 62.0541 28.5801 61.1728 28.5801C59.7879 28.5801 58.5289 29.0837 57.6475 29.965C56.7662 30.8463 56.1367 32.3571 56.1367 33.9938C56.1367 35.3788 56.6403 36.6378 57.6475 37.7709C58.7807 38.904 59.9138 39.2817 61.4246 39.2817C62.3059 39.2817 63.5649 39.1558 64.4462 37.7709V39.0299H67.7197V28.9578ZM59.5361 33.9938C59.5361 32.9866 59.9138 32.483 60.2915 32.1053C60.7951 31.7276 61.4246 31.3499 61.9282 31.224C62.4318 31.224 63.1872 31.4758 63.6908 31.9794C64.1944 32.483 64.4462 33.1125 64.4462 33.8679C64.4462 34.7493 64.0685 35.3788 63.6908 35.7565C63.3131 36.2601 62.6836 36.5119 62.0541 36.5119C61.2987 36.5119 60.6692 36.2601 60.1656 35.7565C59.9138 35.5047 59.5361 35.0011 59.5361 33.9938Z" fill="#1D2832"/>
<path d="M71.6229 22.6621C72.6301 22.6621 73.5114 23.5434 73.5114 24.5506C73.5114 25.6837 72.6301 26.4392 71.6229 26.4392C70.6157 26.4392 69.7344 25.5578 69.7344 24.5506C69.7344 23.5434 70.4898 22.6621 71.6229 22.6621Z" fill="#1D2832"/>
<path d="M73.2596 28.9572V39.0293H69.9862V28.9572H73.2596Z" fill="#1D2832"/>
<path d="M78.9222 39.0301V31.6019H81.5661V28.9579H78.9222V27.3212C78.9222 26.8176 78.9222 26.0622 79.2999 25.5586C79.4258 25.4327 79.8035 25.1809 80.3071 25.1809C80.6848 25.1809 81.1884 25.3068 81.5661 25.5586V22.6629C80.9366 22.4111 80.433 22.2852 79.6776 22.2852C78.4186 22.2852 77.4114 22.6629 76.7819 23.4183C75.7746 24.5514 75.6487 25.8104 75.6487 26.9435V28.9579H74.5156V31.6019H75.6487V39.0301H78.9222Z" fill="#1D2832"/>
<path d="M86.4769 31.6019V39.0301H83.2034V31.6019H82.0703V28.9579H83.2034V26.9435C83.2034 25.8104 83.3293 24.5514 84.3365 23.4183C84.9661 22.6629 85.9733 22.2852 87.2323 22.2852C87.9877 22.2852 88.4913 22.4111 89.1208 22.6629V25.5586C88.7431 25.3068 88.2395 25.1809 87.8618 25.1809C87.3582 25.1809 86.9805 25.4327 86.8546 25.5586C86.4769 26.0622 86.4769 26.8176 86.4769 27.3212V28.9579H89.1208V31.6019H86.4769Z" fill="#1D2832"/>
<path fill-rule="evenodd" clip-rule="evenodd" d="M92.5244 34.4966H100.078L99.9526 34.3707C99.9526 33.1116 99.7007 31.4749 98.5676 30.2159C97.3086 28.9569 95.6719 28.7051 94.5388 28.7051C93.4057 28.7051 91.8948 28.831 90.6358 30.09C89.6286 31.2231 89.125 32.7339 89.125 34.1188C89.125 35.7556 89.7545 37.1405 90.6358 38.0218C91.7689 39.1549 93.1539 39.4067 94.6647 39.4067C95.7978 39.4067 96.805 39.2808 97.8122 38.6513C98.4417 38.2736 99.323 37.5182 99.8266 36.1333L96.805 35.7556C96.4273 36.3851 96.0496 36.6369 96.0496 36.6369C95.7978 36.7628 95.2942 36.8887 94.7906 36.8887C94.287 36.8887 93.6575 36.7628 93.1539 36.2592C92.7762 35.7556 92.5244 35.0002 92.5244 34.4966ZM96.4273 31.4749C96.9309 31.8526 97.0568 32.4821 97.0568 32.608L92.7762 32.7339C92.7762 32.2303 93.028 31.8526 93.2798 31.6008C93.5316 31.349 94.0352 30.9713 94.9165 30.9713C95.546 30.9713 96.0496 31.0972 96.4273 31.4749Z" fill="#1D2832"/>
<path d="M103.474 22.6621C104.482 22.6621 105.363 23.5434 105.363 24.5506C105.363 25.6837 104.482 26.4392 103.474 26.4392C102.467 26.4392 101.586 25.5578 101.586 24.5506C101.586 23.5434 102.341 22.6621 103.474 22.6621Z" fill="#1D2832"/>
<path d="M105.111 28.9572V39.0293H101.838V28.9572H105.111Z" fill="#1D2832"/>
<path d="M111.66 30.9722C112.29 30.9722 112.919 31.224 113.423 31.4758L114.682 29.4614C113.8 28.9578 112.793 28.5801 111.282 28.5801C110.401 28.5801 109.142 28.706 108.261 29.5873C107.631 30.2168 107.254 30.9722 107.254 31.9794C107.254 32.8607 107.505 33.3643 108.009 33.8679C108.513 34.2457 109.016 34.6234 109.646 34.7493L110.653 35.0011C111.157 35.127 111.408 35.2529 111.66 35.3788C111.912 35.6306 112.038 35.8824 112.038 36.0083C112.038 36.2601 111.912 36.5119 111.66 36.6378C111.408 36.8896 110.905 36.8896 110.653 36.8896C110.149 36.8896 109.772 36.7637 109.268 36.5119C109.016 36.4279 108.764 36.2321 108.513 36.0362C108.387 35.9383 108.261 35.8404 108.135 35.7565L106.75 38.0227C108.009 39.1558 109.52 39.4076 110.905 39.4076C111.912 39.4076 113.171 39.2817 114.178 38.2745C114.556 37.8968 115.185 37.0155 115.185 35.6306C115.185 34.8752 115.06 34.2457 114.43 33.742C113.926 33.2384 113.297 32.9866 112.793 32.8607L111.912 32.6089C111.408 32.483 111.157 32.3571 110.905 32.2312C110.653 32.1053 110.527 31.9794 110.527 31.7276C110.527 31.4758 110.653 31.3499 110.779 31.224C110.905 31.0981 111.282 30.9722 111.66 30.9722Z" fill="#1D2832"/>
<path fill-rule="evenodd" clip-rule="evenodd" d="M126.891 34.4966H119.337C119.337 35.0002 119.589 35.7556 119.966 36.2592C120.47 36.7628 121.099 36.8887 121.603 36.8887C122.107 36.8887 122.61 36.7628 122.862 36.6369C122.862 36.6369 123.24 36.3851 123.618 35.7556L126.639 36.1333C126.136 37.5182 125.254 38.2736 124.625 38.6513C123.618 39.2808 122.61 39.4067 121.477 39.4067C119.966 39.4067 118.581 39.1549 117.448 38.0218C116.567 37.1405 115.938 35.7556 115.938 34.1188C115.938 32.7339 116.441 31.2231 117.448 30.09C118.707 28.831 120.218 28.7051 121.351 28.7051C122.484 28.7051 124.121 28.9569 125.38 30.2159C126.513 31.4749 126.765 33.1116 126.765 34.3707L126.891 34.4966ZM123.869 32.608C123.869 32.4821 123.743 31.8526 123.24 31.4749C122.862 31.0972 122.358 30.9713 121.729 30.9713C120.848 30.9713 120.344 31.349 120.092 31.6008C119.84 31.8526 119.589 32.2303 119.589 32.7339L123.869 32.608Z" fill="#1D2832"/>
<path d="M131.551 28.9578H128.277C128.403 28.9578 128.403 39.0299 128.277 39.0299H131.551V33.742C131.551 33.1125 131.677 32.3571 132.18 31.8535C132.432 31.6017 132.936 31.3499 133.565 31.3499C134.195 31.3499 134.572 31.6017 134.824 31.8535C135.328 32.3571 135.328 33.2384 135.328 33.8679V39.0299H138.601V32.6089C138.601 31.7276 138.601 30.5945 137.594 29.5873C136.713 28.706 135.58 28.5801 134.698 28.5801C133.691 28.5801 132.558 28.8319 131.551 30.0909V28.9578Z" fill="#1D2832"/>
</g>
<defs>
<clipPath id="clip0_1211_1679">
<rect width="194" height="64" fill="white"/>
</clipPath>
</defs>
</svg>
