<svg width="149" height="64" viewBox="0 0 149 64" fill="none" xmlns="http://www.w3.org/2000/svg">
<g clip-path="url(#clip0_1211_1680)">
<path d="M34.2771 33.5423L38.0305 40.1565H41.5301L37.61 33.263C39.8081 32.4731 41.3158 30.9812 41.3158 28.4679C41.3158 25.6515 39.1177 23.8563 35.5467 23.8563H28.6191V40.1645H31.6742V33.5503H34.2771V33.5423ZM31.6822 30.8375V26.5531H35.5467C37.4195 26.5531 38.2607 27.3908 38.2607 28.6993C38.2607 30.0078 37.4274 30.8455 35.5467 30.8455H31.6822V30.8375ZM54.4094 34.38C54.4094 30.3269 51.2828 28.2764 48.1324 28.2764C44.982 28.2764 41.8554 30.3269 41.8554 34.38C41.8554 38.4331 44.982 40.4836 48.1324 40.4836C51.2828 40.4836 54.4094 38.4331 54.4094 34.38ZM48.1324 37.731C46.4183 37.731 44.8154 36.4943 44.8154 34.38C44.8154 32.2577 46.4104 31.029 48.1324 31.029C49.8465 31.029 51.4494 32.2657 51.4494 34.38C51.4415 36.5023 49.8465 37.731 48.1324 37.731ZM58.3533 31.5397C58.3533 30.9094 59.0516 30.5583 59.996 30.5583C61.1069 30.5583 61.8687 31.045 62.4321 31.8827L64.3287 30.5583C63.5193 29.1381 62.2655 28.2764 59.9483 28.2764C57.7026 28.2764 55.7584 29.4652 55.7584 31.6274C55.7584 33.7258 57.4249 34.7949 59.6706 35.2417C61.3132 35.5688 62.083 36.0076 62.083 36.7337C62.083 37.6193 61.2736 38.0182 60.2737 38.0182C58.9326 38.0182 58.1152 37.2284 57.5598 36.3188L55.2267 37.8028C56.0123 39.2469 57.5201 40.4836 60.234 40.4836C63.0829 40.4836 64.7731 38.8081 64.7731 36.638C64.7731 34.7071 63.6621 33.63 60.972 33.0715C59.1707 32.7045 58.3533 32.2817 58.3533 31.5397ZM65.646 28.6035V30.9812H67.4315V36.8055C67.4315 39.6459 69.1218 40.4836 71.1136 40.4836C71.7881 40.4836 72.5499 40.34 73.0578 40.1565L72.78 37.731C72.5499 37.8028 72.2483 37.8746 71.804 37.8746C70.9231 37.8746 70.3438 37.4358 70.3438 36.247V30.9812H72.8435V28.6035H70.3438V25.4839H67.4236V28.6035H65.646ZM76.7081 35.0742H85.5561V34.0529C85.5561 30.678 83.239 28.2764 79.9458 28.2764C76.6129 28.2764 73.8989 30.7258 73.8989 34.38C73.8989 38.0342 76.6128 40.4836 79.8029 40.4836C82.3264 40.4836 83.9294 39.5262 85.0879 37.5475L82.7708 36.3826C82.0487 37.2922 81.4059 37.9704 79.8505 37.9704C78.1444 37.9704 76.8906 36.8454 76.7081 35.0742ZM79.8585 30.5104C81.4773 30.5104 82.5724 31.396 82.8501 32.8402H76.7557C77.1683 31.5397 78.3269 30.5104 79.8585 30.5104ZM87.2067 40.1565H90.127V23.8483H87.2067V40.1565ZM94.7296 35.0582H103.578V34.0369C103.578 30.662 101.26 28.2605 97.9672 28.2605C94.6343 28.2605 91.9204 30.7099 91.9204 34.3641C91.9204 38.0182 94.6343 40.4677 97.8244 40.4677C100.348 40.4677 101.951 39.5102 103.109 37.5316L100.792 36.3667C100.07 37.2762 99.4274 37.9544 97.872 37.9544C96.1659 37.9464 94.9121 36.8294 94.7296 35.0582ZM97.8799 30.4945C99.4988 30.4945 100.594 31.3801 100.872 32.8242H94.7772C95.1898 31.5157 96.3484 30.4945 97.8799 30.4945ZM116.322 37.364L113.91 36.0396C113.211 37.0209 112.473 37.7151 111.037 37.7151C109.275 37.7151 107.982 36.4305 107.982 34.3641C107.982 32.3136 109.323 31.0131 111.037 31.0131C112.077 31.0131 112.981 31.4998 113.703 32.6008L116.203 31.1567C115.37 29.3615 113.56 28.2685 111.061 28.2685C107.791 28.2685 105.014 30.6939 105.014 34.372C105.014 38.0502 107.656 40.4756 111.061 40.4756C113.521 40.4597 115.163 39.3427 116.322 37.364ZM129.876 34.3561C129.876 30.303 126.749 28.2525 123.599 28.2525C120.448 28.2525 117.322 30.303 117.322 34.3561C117.322 38.4092 120.448 40.4597 123.599 40.4597C126.749 40.4597 129.876 38.4092 129.876 34.3561ZM123.599 37.7151C121.885 37.7151 120.282 36.4784 120.282 34.3641C120.282 32.2418 121.877 31.0131 123.599 31.0131C125.313 31.0131 126.916 32.2498 126.916 34.3641C126.908 36.4784 125.313 37.7151 123.599 37.7151ZM148.151 40.1405V32.0503C148.151 29.7684 146.834 28.2525 144.445 28.2525C143.033 28.2525 141.62 28.8828 140.787 30.2312C140.303 28.9945 139.279 28.2525 137.589 28.2525C136.383 28.2525 135.113 28.7871 134.256 30.1195V28.5796H131.328V40.1405H134.248V33.662C134.248 31.795 135.288 30.8216 136.423 30.8216C137.7 30.8216 138.279 31.6354 138.279 33.0316V40.1326H141.2V33.7018C141.2 31.795 142.128 30.8136 143.422 30.8136C144.699 30.8136 145.231 31.6274 145.231 32.9838V40.1405H148.151Z" fill="#303030"/>
<path d="M8.45996 35.0098L8.47266 35.0244L8.48633 35.0381L17.1162 43.709C17.4454 44.0397 17.2117 44.6032 16.7451 44.6035H3.08105C2.19479 44.6035 0.870179 43.7669 0.870117 41.9678C0.869636 40.5165 0.913954 39.0855 0.936523 37.8457C0.95721 36.7091 0.95909 35.7048 0.880859 35.0381L3.1543 28.8242L8.45996 35.0098Z" stroke="#303030" stroke-width="1.04918"/>
<path d="M3.08215 45.1274C1.86009 45.1274 0.328543 44.146 0.328543 42.1913V20.3061C0.328543 17.3461 0.17777 15.2716 2.28067 13.1573L10.1606 5.23462L24.135 19.3088L1.79661 41.7684C1.43951 42.1275 1.22525 42.6142 1.22525 43.1567C1.22525 44.0742 1.91564 45.1274 3.08215 45.1274Z" fill="#303030"/>
</g>
<defs>
<clipPath id="clip0_1211_1680">
<rect width="148.984" height="64" fill="white"/>
</clipPath>
</defs>
</svg>
