<svg width="75" height="64" viewBox="0 0 75 64" fill="none" xmlns="http://www.w3.org/2000/svg">
<g clip-path="url(#clip0_1211_1689)">
<path fill-rule="evenodd" clip-rule="evenodd" d="M51.9453 31.5534C55.1811 27.9562 57.6782 25.1807 62.3723 25.1807C69.8755 25.1807 73.708 34.2691 75.0035 41.7036H69.4166C67.7541 34.3014 65.244 30.471 62.3021 30.471C60.3313 30.471 59.1999 31.7131 56.9576 34.1748C56.6634 34.4977 56.3503 34.8416 56.0135 35.2065C55.8057 35.4317 55.5946 35.6635 55.3803 35.8994L55.3782 35.9016C52.8729 38.6554 49.8591 41.9676 45.331 41.9676C37.6389 41.9676 34.4487 33.5741 33.5364 25.4285H39.1125C40.327 33.4017 42.7129 36.6341 45.4119 36.6341C47.3677 36.6341 49.1789 34.6238 51.569 31.971C51.6659 31.8635 51.7637 31.755 51.8625 31.6454L51.9453 31.5534ZM8.12284 37.1513H12.2091L12.1983 25.45H17.5153V41.7305H8.10664C3.64254 41.7197 0.64127 38.4712 0.511719 34.0697V25.45H5.82871V34.4953C5.82871 36.1331 6.50345 37.1513 8.12284 37.1513ZM28.9374 25.45V41.7036H23.3667L23.3559 25.45H28.9374Z" fill="#1D2832"/>
<path d="M23.9438 16.2687C24.4614 15.9229 25.0699 15.7383 25.6925 15.7383C26.5272 15.7383 27.3278 16.0699 27.9181 16.6602C28.5084 17.2505 28.84 18.051 28.84 18.8858C28.84 19.5084 28.6554 20.1169 28.3095 20.6345C27.9637 21.1521 27.4721 21.5555 26.897 21.7938C26.3219 22.032 25.6889 22.0943 25.0784 21.9729C24.4679 21.8514 23.907 21.5517 23.4668 21.1115C23.0266 20.6713 22.7268 20.1104 22.6054 19.4999C22.484 18.8893 22.5463 18.2565 22.7845 17.6813C23.0228 17.1062 23.4262 16.6146 23.9438 16.2687Z" fill="#1D2832"/>
</g>
<defs>
<clipPath id="clip0_1211_1689">
<rect width="75" height="64" fill="white"/>
</clipPath>
</defs>
</svg>
