<svg width="85" height="64" viewBox="0 0 85 64" fill="none" xmlns="http://www.w3.org/2000/svg">
<g clip-path="url(#clip0_1211_1687)">
<path fill-rule="evenodd" clip-rule="evenodd" d="M0.0465698 32.4444C0.0465698 24.906 6.00518 18.749 13.2774 18.749C20.6199 18.749 26.5551 24.906 26.5551 32.4444C26.5551 40.0073 20.6199 46.1641 13.2774 46.1641C6.00518 46.1641 0.0465698 40.0073 0.0465698 32.4444ZM13.9108 40.589C14.1688 38.0681 14.9429 35.0867 19.7285 35.0624C20.5261 33.414 20.6669 32.0809 20.6669 30.6024C20.6669 26.7966 17.7345 23.3061 13.3242 23.3061C8.91404 23.3061 5.93474 26.8209 5.93474 30.578C5.93474 32.0809 6.26316 33.414 7.03729 35.0624C11.6587 35.0867 12.4563 38.0681 12.7143 40.589L12.8316 41.704H13.7935L13.9108 40.589Z" fill="#1D2832"/>
<path d="M81.0285 28.8325H84.9226C84.4301 25.0511 81.662 23.0635 77.8145 23.0635C73.9205 23.0635 71.3166 25.1239 71.3166 28.6629C71.3166 32.6866 74.6711 33.5834 76.454 33.9472C76.7873 34.0139 77.1196 34.072 77.4441 34.1288C79.3585 34.4635 81.005 34.7514 81.005 36.4922C81.005 37.8739 79.879 38.5526 78.2838 38.5526C76.3133 38.5526 74.9997 37.5346 74.6711 35.6924H70.8239C71.0584 39.6677 73.8502 41.8008 77.9555 41.8008C81.7558 41.8008 84.8757 40.0071 84.8757 36.1287C84.8757 31.9594 81.2866 31.208 78.7764 30.8202L78.6465 30.8C76.9703 30.5403 75.1872 30.264 75.1872 28.4447C75.1872 27.1357 76.149 26.3359 77.7677 26.3359C79.6445 26.3359 80.7704 27.4267 81.0285 28.8325Z" fill="#1D2832"/>
<path d="M68.6867 23.6699H65.0036V41.2436H68.6867V23.6699Z" fill="#1D2832"/>
<path d="M58.6915 35.1123H53.8823V32.1065H62.5855V33.5367C62.5855 38.4331 58.9495 41.56 54.3046 41.56C49.5893 41.56 45.4606 38.1907 45.4606 32.4944C45.4606 26.8708 49.261 23.3076 54.3281 23.3076C58.4334 23.3076 61.9053 25.6589 62.5855 29.7553L58.621 29.7553C58.011 27.9373 56.4159 26.9193 54.2812 26.9193C50.7858 26.9193 49.2845 29.7068 49.2845 32.4459C49.2845 35.1607 50.8797 37.8998 54.3046 37.8998C56.2516 37.8998 57.9407 37.0031 58.6915 35.1123Z" fill="#1D2832"/>
<path d="M37.0377 23.3076C32.8151 23.3076 29.6951 26.0466 29.7186 30.6037H33.5189C33.472 28.6161 34.6918 26.7981 36.85 26.7981C38.7268 26.7981 39.8293 28.1555 39.8293 29.7068C39.8293 31.2582 38.7268 32.1308 36.6858 33.0762C33.8942 34.3609 31.9003 35.185 29.8593 35.9122V41.2449H44.0754V37.6574H34.3159C34.3159 37.6574 34.3273 37.6537 34.3399 37.6497C34.3486 37.6469 34.3579 37.644 34.3644 37.642C36.0244 37.1222 37.2714 36.5576 38.7503 35.888C41.9172 34.4336 43.7235 32.6156 43.7235 29.513C43.7235 25.7073 41.0023 23.3076 37.0377 23.3076Z" fill="#1D2832"/>
</g>
<defs>
<clipPath id="clip0_1211_1687">
<rect width="85" height="64" fill="white"/>
</clipPath>
</defs>
</svg>
