<svg width="105" height="64" viewBox="0 0 105 64" fill="none" xmlns="http://www.w3.org/2000/svg">
<g clip-path="url(#clip0_1211_1688)">
<path d="M52.1442 18.9153C51.4322 18.7713 50.7189 19.1545 50.4402 19.8311L44.536 34.138L38.6306 19.8311C38.3532 19.1545 37.6411 18.7699 36.9265 18.9153C36.2145 19.0594 35.7028 19.6897 35.7028 20.4232V38.137C35.7028 38.9868 36.3847 39.6753 37.2263 39.6753C38.0678 39.6753 38.7497 38.9868 38.7497 38.137V28.1105L43.1316 38.729C43.3685 39.3012 43.9221 39.6753 44.5373 39.6753C45.1524 39.6753 45.7061 39.3026 45.943 38.729L50.3236 28.1119V38.137C50.3236 38.9868 51.0055 39.6753 51.8472 39.6753C52.6887 39.6753 53.3706 38.9868 53.3706 38.137V20.4219C53.368 19.6897 52.8562 19.058 52.1442 18.9153Z" fill="#1D2832"/>
<path d="M10.54 36.5972C12.5884 36.5972 14.5542 35.7303 15.9376 34.2185C16.507 33.5921 17.4728 33.5565 18.0893 34.1326C18.7071 34.7088 18.7463 35.6814 18.1757 36.3052C16.2164 38.4461 13.4339 39.6738 10.54 39.6738C4.82702 39.6738 0.179382 35.0115 0.179382 29.2799C0.179382 23.5485 4.82702 18.8848 10.54 18.8848C13.4207 18.8848 16.1941 20.1019 18.1509 22.2243C18.7228 22.8467 18.6875 23.8194 18.0723 24.3982C17.4572 24.9744 16.4938 24.944 15.9193 24.3189C14.5385 22.819 12.5779 21.9587 10.54 21.9587C6.50624 21.9587 3.22501 25.2426 3.22501 29.2786C3.22501 33.3145 6.50624 36.5972 10.54 36.5972Z" fill="#1D2832"/>
<path d="M86.8708 26.3273C86.8708 25.4776 87.5527 24.7891 88.3942 24.7891C89.2346 24.7891 89.9164 25.4776 89.9177 26.326V38.1365C89.9177 38.9862 89.2358 39.6748 88.3942 39.6748C87.5527 39.6748 86.8708 38.9862 86.8708 38.1365V26.3273Z" fill="#1D2832"/>
<path d="M87.3119 20.0698C87.037 20.3618 86.8708 20.7464 86.8708 21.1613C86.8708 21.5763 87.0383 21.9609 87.3119 22.2529C87.6011 22.5304 87.9964 22.6983 88.393 22.6983C88.7882 22.6983 89.1848 22.5291 89.4741 22.2529C89.7476 21.9609 89.9151 21.5604 89.9151 21.1613C89.9151 20.7609 89.7476 20.3618 89.4741 20.0698C88.8942 19.5015 87.8746 19.5015 87.3119 20.0698Z" fill="#1D2832"/>
<path d="M101.896 35.1776C102.466 34.5512 103.43 34.5156 104.047 35.0904C104.665 35.6666 104.703 36.6393 104.135 37.263C102.733 38.7947 100.743 39.6735 98.672 39.6735C94.5832 39.6735 91.2575 36.3353 91.2575 32.2319C91.2575 28.1286 94.5832 24.7891 98.672 24.7891C100.732 24.7891 102.716 25.6613 104.117 27.181C104.688 27.8035 104.653 28.7761 104.038 29.355C103.422 29.9338 102.46 29.8995 101.885 29.2757C101.047 28.3651 99.9062 27.8643 98.6706 27.8643C96.2624 27.8643 94.3018 29.8227 94.3018 32.2319C94.3018 34.6398 96.2611 36.5983 98.6706 36.5983C99.8944 36.5983 101.07 36.0803 101.896 35.1776Z" fill="#1D2832"/>
<path fill-rule="evenodd" clip-rule="evenodd" d="M85.5275 26.3273C85.5275 25.4776 84.8456 24.7891 84.0041 24.7891H78.5214C78.5069 24.7891 78.4939 24.7931 78.4809 24.7971C78.4694 24.8007 78.4579 24.8043 78.4455 24.8049C77.9691 24.7877 77.4862 24.8036 77.0006 24.8789C73.8725 25.3626 71.353 27.9066 70.874 31.065C70.5114 33.457 71.2653 35.8001 72.9445 37.4943C73.3424 37.896 73.7835 38.2303 74.2456 38.5251C73.8987 39.0881 73.7089 39.7184 73.7089 40.3514C73.7089 40.9197 73.8673 41.4827 74.1474 42.0007C72.1279 43.0658 70.785 44.9028 70.785 46.9948C70.785 50.284 74.0911 52.9602 78.155 52.9602C82.2189 52.9602 85.5263 50.284 85.5263 46.9948C85.5263 43.7042 82.2189 41.028 78.155 41.028C77.3565 41.028 76.7545 40.7373 76.7545 40.3514C76.7545 39.9669 77.3527 39.6774 78.1471 39.6761C78.532 39.6761 78.9206 39.6471 79.3107 39.5863C82.4388 39.1025 84.9583 36.5586 85.4373 33.4001C85.741 31.3968 85.2514 29.4303 84.0983 27.8471C84.8941 27.7942 85.5275 27.1427 85.5275 26.3273ZM78.1563 44.1032C80.5004 44.1032 82.482 45.4275 82.482 46.9948C82.482 48.5621 80.5004 49.885 78.1563 49.885C75.8122 49.885 73.8319 48.5607 73.8319 46.9948C73.8319 45.4287 75.8122 44.1032 78.1563 44.1032ZM82.4282 32.9336C82.1521 34.7494 80.6483 36.2679 78.8513 36.5467C77.4495 36.7622 76.0844 36.3168 75.0988 35.3217C74.1133 34.3266 73.671 32.9455 73.8856 31.5328C74.1618 29.7184 75.6656 28.1986 77.4626 27.9211C77.6943 27.8854 77.9246 27.8682 78.1536 27.8682C79.3041 27.8682 80.393 28.3162 81.215 29.1475C82.2005 30.14 82.6429 31.5196 82.4282 32.9336Z" fill="#1D2832"/>
<path fill-rule="evenodd" clip-rule="evenodd" d="M60.9225 24.8803C63.2889 24.5103 65.6107 25.2768 67.2886 26.971C68.7401 28.4353 69.4966 30.3858 69.4429 32.4303C69.4429 32.4362 69.4446 32.4418 69.4462 32.4474C69.4479 32.453 69.4495 32.4587 69.4495 32.4646V38.1367C69.4495 38.9864 68.7676 39.6749 67.9261 39.6749C67.1224 39.6749 66.4824 39.0419 66.4248 38.245C65.4981 38.9322 64.4092 39.4053 63.2339 39.5864C62.8438 39.6471 62.4552 39.6762 62.0703 39.6762C60.1176 39.6762 58.2682 38.9123 56.8665 37.4957C55.1872 35.8015 54.4333 33.4584 54.7959 31.0664C55.275 27.908 57.7944 25.364 60.9225 24.8803ZM62.7719 36.5468C64.5689 36.2693 66.0727 34.7495 66.3489 32.9337C66.5635 31.5197 66.1212 30.1401 65.1356 29.1462C64.1501 28.1511 62.7863 27.7084 61.3832 27.9212C59.5862 28.1987 58.0824 29.7185 57.8062 31.5329C57.5916 32.9456 58.034 34.3267 59.0195 35.3217C60.0064 36.3169 61.3714 36.7623 62.7719 36.5468Z" fill="#1D2832"/>
<path fill-rule="evenodd" clip-rule="evenodd" d="M25.2995 25.1398C27.6962 24.7639 30.0452 25.5398 31.7437 27.2548C33.4423 28.9698 34.2081 31.3416 33.841 33.7642C33.3562 36.9615 30.8057 39.538 27.6393 40.0263C27.2444 40.0878 26.851 40.1172 26.4615 40.1172C24.4847 40.1172 22.6127 39.344 21.1937 37.9099C19.4939 36.195 18.7308 33.8231 19.0977 31.4019C19.5827 28.2046 22.133 25.6294 25.2995 25.1398ZM27.1716 36.9481C28.9907 36.6672 30.5142 35.1287 30.7938 33.2907C31.0097 31.8607 30.5619 30.4627 29.5643 29.4568C28.5654 28.4494 27.1875 28.0013 25.7659 28.2166C23.9468 28.4976 22.4245 30.036 22.1449 31.8727C21.9277 33.3027 22.3755 34.7007 23.3732 35.7079C24.3721 36.7153 25.7553 37.1661 27.1716 36.9481Z" fill="#1D2832"/>
</g>
<defs>
<clipPath id="clip0_1211_1688">
<rect width="105" height="64" fill="white"/>
</clipPath>
</defs>
</svg>
