<svg width="130" height="65" viewBox="0 0 130 65" fill="none" xmlns="http://www.w3.org/2000/svg">
<path d="M19.95 27.75H5.71948V30.6H19.95V35.35H5.71948V42H0V23H19.95V27.75Z" fill="#1D2832"/>
<path d="M28.5 37.25H40.85V42H22.8V23H28.5V37.25Z" fill="#1D2832"/>
<path d="M57.5372 23C62.3392 23 65.55 26.2192 65.55 31.0342V33.9658C65.55 38.7808 62.3392 42 57.5372 42H52.25C52.2499 39.6357 54.189 37.2676 57 37.25L57.3414 37.2379C58.825 37.2378 59.85 36.2366 59.85 34.7219L59.914 30.2883C59.914 28.7734 58.8892 27.7723 57.4054 27.7723L50.0086 27.75C48.498 27.7502 47.5 28.7513 47.5 30.266V34.7396C47.5 36.2542 48.498 37.2554 50.0086 37.2556L52.25 37.25V42H49.8128C45.0108 42 41.8 38.7808 41.8 33.9658V31.0342C41.8 26.2192 45.0108 23 49.8128 23H57.5372Z" fill="#1D2832"/>
<path d="M82.0405 36.3H82.3095L86.1299 23H95.95V42H90.2305V28.7H89.9605L85.9685 42H78.375L74.37 28.7H74.1V42H68.4V23H78.375L82.0405 36.3Z" fill="#1D2832"/>
<path d="M114.661 36.3H114.931V23H120.65V42H111.15L104.789 28.7H104.519V42H98.8V23H108.3L114.661 36.3Z" fill="#1D2832"/>
<path d="M129.2 42H123.5V23H129.2V42Z" fill="#1D2832"/>
</svg>
