<svg width="109" height="64" viewBox="0 0 109 64" fill="none" xmlns="http://www.w3.org/2000/svg">
<g clip-path="url(#clip0_1211_1686)">
<path fill-rule="evenodd" clip-rule="evenodd" d="M-0.0546875 16.9521H32.8127V33.4637C32.8127 37.6978 30.5574 41.6014 26.8827 43.7264L16.379 49.7864L5.87533 43.7264C2.20061 41.6172 -0.0546875 37.6978 -0.0546875 33.4637V16.9521ZM8.94531 25.6406V30.772C9.65502 29.9849 10.9325 29.4498 12.3835 29.4498H13.9764V35.4153C13.9764 37.0051 13.5505 38.3903 12.9039 39.1615H19.8117C19.1651 38.3903 18.7393 37.0051 18.7393 35.4153V29.4498H20.3322C21.7989 29.4498 23.0764 29.9849 23.7703 30.772V25.6406H8.94531ZM62.6643 39.1506L63.4342 37.1935H69.7092L70.507 39.1506H75.1563L69.5943 25.6506H63.548L57.9859 39.1506H62.6643ZM68.7106 34.2157H64.4607L66.4289 28.7704H66.7424L68.7106 34.2157ZM57.7526 35.2933C57.7526 33.9609 56.9816 32.6284 55.2712 32.1458C56.4974 31.6066 57.467 30.5859 57.467 29.1114C57.467 27.6647 56.6681 26.4742 55.0993 25.9627C54.4154 25.7364 53.5306 25.651 52.2765 25.651H42.4076V39.151H52.4762C53.6734 39.151 54.5582 39.0655 55.299 38.7826C56.8109 38.2146 57.7526 36.8821 57.7526 35.2933ZM52.6469 30.8699C52.4472 30.9542 52.1337 30.9831 51.7342 30.9831H46.344V28.6576H51.7342C52.1337 28.6576 52.4472 28.6854 52.6748 28.7708C53.1601 28.9405 53.3889 29.3377 53.3889 29.7915C53.3889 30.2453 53.1602 30.6425 52.6469 30.8699ZM52.8176 35.918C52.59 36.0034 52.2765 36.0312 51.877 36.0312H46.344V33.7346H51.877C52.3334 33.7346 52.6469 33.7623 52.8745 33.8477C53.3308 34.0175 53.5596 34.3858 53.5596 34.8407C53.5596 35.3222 53.3308 35.7194 52.8176 35.918ZM80.1456 25.6508L87.3043 33.0532V25.6508H91.2407V39.1508H87.5899L80.2605 31.6918V39.1508H76.3241V25.6508H80.1456ZM97.785 39.1508V34.0461H98.9253L103.859 39.1508H109.364L102.49 32.1179L109.108 25.6508H103.916L98.9253 30.7277H97.785V25.6508H93.6489V39.1508H97.785Z" fill="#1D2832"/>
</g>
<defs>
<clipPath id="clip0_1211_1686">
<rect width="109" height="64" fill="white"/>
</clipPath>
</defs>
</svg>
