<svg width="24" height="24" viewBox="0 0 24 24" fill="none" xmlns="http://www.w3.org/2000/svg">
<path fill-rule="evenodd" clip-rule="evenodd" d="M3.38172 11.1387C8.74289 8.78778 12.3266 7.26831 14.1327 6.5229C19.2359 4.40137 20.2966 4.02867 20.9847 4C21.128 4 21.4721 4.02867 21.7014 4.20069C21.8734 4.34403 21.9308 4.54472 21.9595 4.68806C21.9881 4.83141 22.0168 5.14677 21.9881 5.4048C21.7014 8.3004 20.526 15.3817 19.8953 18.6214C19.6372 19.9975 19.1212 20.4562 18.6338 20.5135C17.573 20.5996 16.7416 19.7968 15.7095 19.1374C14.1041 18.0766 13.1866 17.4173 11.6098 16.3852C9.80365 15.181 10.9791 14.5216 12.0112 13.4609C12.2692 13.1742 16.9997 8.90246 17.0857 8.50109C17.0857 8.44375 17.1143 8.27173 16.9997 8.18573C16.885 8.09972 16.7416 8.12839 16.627 8.15705C16.4549 8.18572 13.8747 9.90589 8.85756 13.2889C8.11216 13.8049 7.45277 14.0343 6.85071 14.0343C6.19132 14.0343 4.92986 13.6616 3.98378 13.3462C2.837 12.9735 1.91958 12.7728 2.00559 12.1421C2.06293 11.8267 2.52164 11.4827 3.38172 11.1387Z" fill="white"/>
</svg>
