<svg width="164" height="24" viewBox="0 0 164 24" fill="none" xmlns="http://www.w3.org/2000/svg">
<path d="M31.4019 22.1658V18.5627L40.9344 6.62752H31.514V2.46147H47.1024V6.06454L37.598 17.9997H47.3828V22.1658H31.4019Z" fill="#333333"/>
<path d="M50.7439 22.1658V2.46147H55.7905V9.94911H63.08V2.46147H68.1266V22.1658H63.08V14.1152H55.7905V22.1658H50.7439Z" fill="#333333"/>
<path d="M72.8863 22.1658V2.46147H77.9329V22.1658H72.8863Z" fill="#333333"/>
<path d="M82.6948 22.1658V2.46147H91.2459C92.8908 2.46147 94.2552 2.73358 95.3393 3.27779C96.4421 3.82201 97.2738 4.58203 97.8346 5.55786C98.3953 6.53369 98.6757 7.69718 98.6757 9.04834C98.6757 10.4558 98.3392 11.6662 97.6663 12.6796C97.0122 13.6742 96.0215 14.406 94.6945 14.8752L99.2364 22.1658H93.6291L89.8161 15.41H87.7414V22.1658H82.6948ZM87.7414 11.4692H90.1245C91.4702 11.4692 92.3861 11.2721 92.8721 10.878C93.3767 10.4652 93.6291 9.85528 93.6291 9.04834C93.6291 8.2414 93.3767 7.64089 92.8721 7.2468C92.3861 6.83395 91.4702 6.62752 90.1245 6.62752H87.7414V11.4692Z" fill="#333333"/>
<path d="M102.75 22.1658V2.46147H107.208L114.806 13.4396V2.46147H120.132V22.1658H115.366L107.796 11.1877V22.1658H102.75Z" fill="#333333"/>
<path d="M133.443 22.5317C132.154 22.5317 130.929 22.3441 129.771 21.9687C128.63 21.5934 127.621 21.0023 126.743 20.1954C125.864 19.3884 125.173 18.3469 124.668 17.0708C124.163 15.776 123.911 14.2371 123.911 12.4544V11.8914C123.911 10.1649 124.163 8.6824 124.668 7.44384C125.173 6.20529 125.864 5.19192 126.743 4.40375C127.621 3.61558 128.63 3.03383 129.771 2.65851C130.929 2.28319 132.154 2.09553 133.443 2.09553C134.752 2.09553 135.976 2.28319 137.116 2.65851C138.256 3.03383 139.266 3.61558 140.144 4.40375C141.023 5.19192 141.714 6.20529 142.219 7.44384C142.723 8.6824 142.976 10.1649 142.976 11.8914V12.4544C142.976 14.2371 142.723 15.776 142.219 17.0708C141.714 18.3469 141.023 19.3884 140.144 20.1954C139.266 21.0023 138.256 21.5934 137.116 21.9687C135.976 22.3441 134.752 22.5317 133.443 22.5317ZM133.415 18.3094C134.182 18.3094 134.892 18.1405 135.546 17.8027C136.2 17.4461 136.724 16.855 137.116 16.0293C137.527 15.1848 137.733 13.9932 137.733 12.4544V11.8914C137.733 10.4276 137.527 9.2923 137.116 8.48536C136.724 7.67842 136.2 7.11544 135.546 6.79642C134.892 6.47739 134.182 6.31788 133.415 6.31788C132.686 6.31788 131.995 6.47739 131.341 6.79642C130.686 7.11544 130.154 7.67842 129.742 8.48536C129.331 9.2923 129.126 10.4276 129.126 11.8914V12.4544C129.126 13.9932 129.331 15.1848 129.742 16.0293C130.154 16.855 130.686 17.4461 131.341 17.8027C131.995 18.1405 132.686 18.3094 133.415 18.3094Z" fill="#333333"/>
<path d="M151.944 22.1658L144.627 2.46147H150.262L154.692 15.6915L158.953 2.46147H164L156.991 22.1658H151.944Z" fill="#333333"/>
<path d="M14.0578 8.01439L21.0879 3.98258L23.4307 8.01364L16.3999 12.0447L23.43 16.0765L21.0871 20.1076L14.0578 16.0758V24H9.37214V16.0765L2.34284 20.1083L0 16.0773L7.0293 12.0447L0.000762645 8.01439L2.34361 3.98333L9.37214 8.01364V0H14.0578V8.01439Z" fill="#333333"/>
</svg>
